<?xml version="1.0" encoding="UTF-8"?>
<svg xmlns="http://www.w3.org/2000/svg" xmlns:xlink="http://www.w3.org/1999/xlink" viewBox="0 0 50 50" width="50px" height="50px">
<g id="surface8900287">
<path style=" stroke:none;fill-rule:nonzero;fill:rgb(10.196079%,73.725492%,61.176473%);fill-opacity:1;" d="M 42.707031 5.207031 L 7.292969 5.207031 L 10.417969 40.625 L 25 44.792969 L 39.582031 40.625 Z M 42.707031 5.207031 "/>
<path style=" stroke:none;fill-rule:nonzero;fill:rgb(8.627451%,87.843138%,74.117649%);fill-opacity:1;" d="M 25 8.332031 L 25 41.5625 L 36.667969 38.230469 L 39.269531 8.332031 Z M 25 8.332031 "/>
<path style=" stroke:none;fill-rule:nonzero;fill:rgb(100%,100%,100%);fill-opacity:1;" d="M 34.480469 13.542969 L 25 13.542969 L 25 17.707031 L 30.105469 17.707031 L 29.792969 21.875 L 25 21.875 L 25 26.042969 L 29.582031 26.042969 L 29.269531 30.730469 L 25 32.1875 L 25 36.5625 L 33.230469 33.855469 L 33.957031 21.875 Z M 34.480469 13.542969 "/>
<path style=" stroke:none;fill-rule:nonzero;fill:rgb(93.333334%,93.333334%,93.333334%);fill-opacity:1;" d="M 25 13.542969 L 25 17.707031 L 15.730469 17.707031 L 15.417969 13.542969 Z M 20.207031 21.875 L 20.417969 26.042969 L 25 26.042969 L 25 21.875 Z M 20.625 28.125 L 16.457031 28.125 L 16.769531 33.855469 L 25 36.5625 L 25 32.1875 L 20.730469 30.730469 Z M 20.625 28.125 "/>
</g>
</svg>
