<?xml version="1.0" encoding="UTF-8"?>
<svg xmlns="http://www.w3.org/2000/svg" xmlns:xlink="http://www.w3.org/1999/xlink" viewBox="0 0 100 100" width="100px" height="100px">
<g id="surface8933661">
<path style=" stroke:none;fill-rule:nonzero;fill:rgb(22.352941%,75.686276%,84.313726%);fill-opacity:1;" d="M 57 50 C 57 53.867188 53.867188 57 50 57 C 46.132812 57 43 53.867188 43 50 C 43 46.132812 46.132812 43 50 43 C 53.867188 43 57 46.132812 57 50 Z M 57 50 "/>
<path style=" stroke:none;fill-rule:nonzero;fill:rgb(10.196079%,73.725492%,61.176473%);fill-opacity:1;" d="M 50 58 C 45.589844 58 42 54.410156 42 50 C 42 45.589844 45.589844 42 50 42 C 54.410156 42 58 45.589844 58 50 C 58 54.410156 54.410156 58 50 58 Z M 50 44 C 46.691406 44 44 46.691406 44 50 C 44 53.308594 46.691406 56 50 56 C 53.308594 56 56 53.308594 56 50 C 56 46.691406 53.308594 44 50 44 Z M 50 44 "/>
<path style=" stroke:none;fill-rule:nonzero;fill:rgb(22.352941%,75.686276%,84.313726%);fill-opacity:1;" d="M 88.5 50 C 88.5 44.625 82.027344 39.972656 71.980469 37.203125 C 74.5625 27.105469 73.769531 19.167969 69.15625 16.472656 C 67.335938 15.410156 65.128906 15.214844 62.59375 15.894531 C 58.773438 16.914062 54.398438 19.902344 50 24.292969 C 45.601562 19.902344 41.226562 16.917969 37.40625 15.894531 C 34.871094 15.214844 32.664062 15.410156 30.84375 16.472656 C 26.230469 19.167969 25.4375 27.105469 28.019531 37.203125 C 17.972656 39.972656 11.5 44.625 11.5 50 C 11.5 55.375 17.972656 60.027344 28.019531 62.800781 C 25.4375 72.894531 26.230469 80.835938 30.84375 83.527344 C 31.957031 84.175781 33.214844 84.503906 34.601562 84.503906 C 35.484375 84.503906 36.421875 84.371094 37.40625 84.105469 C 41.226562 83.085938 45.601562 80.097656 50 75.707031 C 54.398438 80.097656 58.773438 83.085938 62.59375 84.105469 C 63.578125 84.371094 64.515625 84.503906 65.398438 84.503906 C 66.785156 84.503906 68.042969 84.179688 69.15625 83.527344 C 73.769531 80.835938 74.5625 72.894531 71.980469 62.800781 C 82.027344 60.027344 88.5 55.375 88.5 50 Z M 63.367188 18.789062 C 64.09375 18.597656 64.765625 18.5 65.386719 18.5 C 66.246094 18.5 67 18.6875 67.640625 19.0625 C 70.734375 20.867188 71.363281 27.484375 69.0625 36.472656 C 65.890625 35.761719 62.425781 35.222656 58.746094 34.890625 C 56.589844 31.777344 54.34375 28.945312 52.078125 26.460938 C 56.097656 22.433594 60.039062 19.683594 63.367188 18.789062 Z M 60.753906 56.300781 C 59.574219 58.363281 58.335938 60.34375 57.0625 62.238281 C 54.800781 62.40625 52.445312 62.5 50 62.5 C 47.554688 62.5 45.199219 62.40625 42.9375 62.238281 C 41.664062 60.34375 40.425781 58.363281 39.246094 56.300781 C 38.027344 54.164062 36.933594 52.058594 35.953125 50 C 36.933594 47.941406 38.027344 45.839844 39.246094 43.703125 C 40.425781 41.636719 41.664062 39.65625 42.941406 37.761719 C 45.199219 37.59375 47.554688 37.5 50 37.5 C 52.445312 37.5 54.800781 37.59375 57.0625 37.761719 C 58.335938 39.65625 59.574219 41.636719 60.753906 43.703125 C 61.972656 45.839844 63.066406 47.941406 64.046875 50 C 63.066406 52.058594 61.972656 54.164062 60.753906 56.300781 Z M 65.644531 53.546875 C 66.683594 56.007812 67.546875 58.375 68.242188 60.628906 C 65.964844 61.132812 63.511719 61.558594 60.886719 61.871094 C 61.730469 60.542969 62.558594 59.1875 63.359375 57.785156 C 64.171875 56.367188 64.929688 54.949219 65.644531 53.546875 Z M 50 71.355469 C 48.363281 69.546875 46.730469 67.546875 45.136719 65.378906 C 46.726562 65.453125 48.347656 65.5 50 65.5 C 51.652344 65.5 53.273438 65.453125 54.863281 65.378906 C 53.269531 67.542969 51.636719 69.546875 50 71.355469 Z M 39.113281 61.871094 C 36.488281 61.558594 34.03125 61.132812 31.757812 60.628906 C 32.453125 58.375 33.3125 56.003906 34.355469 53.546875 C 35.070312 54.949219 35.828125 56.367188 36.640625 57.785156 C 37.441406 59.1875 38.269531 60.546875 39.113281 61.871094 Z M 34.355469 46.457031 C 33.316406 43.996094 32.453125 41.625 31.757812 39.371094 C 34.035156 38.863281 36.492188 38.441406 39.113281 38.128906 C 38.269531 39.453125 37.441406 40.8125 36.640625 42.214844 C 35.828125 43.636719 35.070312 45.050781 34.355469 46.457031 Z M 50 28.644531 C 51.636719 30.453125 53.269531 32.457031 54.863281 34.621094 C 53.273438 34.546875 51.652344 34.5 50 34.5 C 48.347656 34.5 46.726562 34.546875 45.136719 34.621094 C 46.730469 32.457031 48.363281 30.453125 50 28.644531 Z M 63.359375 42.214844 C 62.558594 40.8125 61.730469 39.457031 60.886719 38.128906 C 63.511719 38.441406 65.964844 38.867188 68.242188 39.371094 C 67.546875 41.625 66.6875 43.996094 65.644531 46.457031 C 64.929688 45.050781 64.171875 43.636719 63.359375 42.214844 Z M 32.359375 19.0625 C 33 18.6875 33.753906 18.5 34.613281 18.5 C 35.234375 18.5 35.90625 18.597656 36.632812 18.789062 C 39.960938 19.683594 43.902344 22.433594 47.921875 26.460938 C 45.65625 28.941406 43.410156 31.777344 41.253906 34.890625 C 37.574219 35.222656 34.109375 35.757812 30.9375 36.472656 C 28.636719 27.480469 29.265625 20.867188 32.359375 19.0625 Z M 14.5 50 C 14.5 46.402344 19.902344 42.558594 28.835938 40.097656 C 29.804688 43.257812 31.074219 46.585938 32.640625 50 C 31.074219 53.414062 29.804688 56.742188 28.835938 59.902344 C 19.902344 57.441406 14.5 53.597656 14.5 50 Z M 36.632812 81.210938 C 34.898438 81.671875 33.460938 81.578125 32.359375 80.9375 C 29.265625 79.132812 28.636719 72.519531 30.9375 63.527344 C 34.109375 64.242188 37.574219 64.777344 41.25 65.109375 C 43.410156 68.222656 45.65625 71.058594 47.917969 73.539062 C 43.902344 77.566406 39.960938 80.316406 36.632812 81.210938 Z M 67.640625 80.9375 C 66.539062 81.582031 65.101562 81.671875 63.367188 81.210938 C 60.039062 80.316406 56.097656 77.566406 52.078125 73.539062 C 54.34375 71.058594 56.589844 68.222656 58.746094 65.109375 C 62.425781 64.777344 65.890625 64.238281 69.0625 63.527344 C 71.363281 72.519531 70.734375 79.132812 67.640625 80.9375 Z M 71.164062 59.902344 C 70.195312 56.742188 68.925781 53.414062 67.359375 50 C 68.925781 46.585938 70.195312 43.257812 71.164062 40.097656 C 80.097656 42.558594 85.5 46.402344 85.5 50 C 85.5 53.597656 80.097656 57.441406 71.164062 59.902344 Z M 71.164062 59.902344 "/>
<path style=" stroke:none;fill-rule:nonzero;fill:rgb(10.196079%,73.725492%,61.176473%);fill-opacity:1;" d="M 34.59375 85.003906 C 33.125 85.003906 31.777344 84.652344 30.59375 83.960938 C 25.960938 81.253906 24.8125 73.683594 27.414062 63.148438 C 16.976562 60.179688 11 55.398438 11 50 C 11 44.601562 16.976562 39.820312 27.414062 36.851562 C 24.8125 26.316406 25.960938 18.746094 30.59375 16.039062 C 32.53125 14.90625 34.867188 14.695312 37.535156 15.410156 C 41.253906 16.40625 45.558594 19.230469 50 23.589844 C 54.445312 19.230469 58.746094 16.40625 62.464844 15.410156 C 65.132812 14.695312 67.46875 14.910156 69.40625 16.039062 C 74.039062 18.746094 75.1875 26.316406 72.585938 36.851562 C 83.023438 39.820312 89 44.601562 89 50 C 89 55.398438 83.023438 60.179688 72.585938 63.148438 C 75.1875 73.683594 74.039062 81.253906 69.40625 83.960938 C 67.480469 85.085938 65.121094 85.300781 62.464844 84.589844 C 58.746094 83.59375 54.441406 80.769531 50 76.410156 C 45.558594 80.769531 41.253906 83.59375 37.535156 84.589844 C 36.515625 84.863281 35.527344 85.003906 34.601562 85.003906 C 34.597656 85.003906 34.597656 85.003906 34.59375 85.003906 Z M 34.605469 16 C 33.304688 16 32.128906 16.300781 31.097656 16.90625 C 26.871094 19.371094 25.902344 26.914062 28.503906 37.078125 C 28.570312 37.34375 28.414062 37.613281 28.148438 37.683594 C 18.039062 40.472656 12 45.078125 12 50 C 12 54.921875 18.039062 59.527344 28.152344 62.316406 C 28.414062 62.386719 28.570312 62.65625 28.503906 62.921875 C 25.902344 73.085938 26.871094 80.628906 31.097656 83.09375 C 32.128906 83.695312 33.304688 84 34.59375 84 C 34.597656 84 34.597656 84 34.601562 84 C 35.4375 84 36.339844 83.875 37.277344 83.621094 C 40.925781 82.644531 45.203125 79.785156 49.648438 75.351562 C 49.84375 75.160156 50.15625 75.160156 50.351562 75.351562 C 54.796875 79.785156 59.074219 82.644531 62.722656 83.621094 C 65.117188 84.261719 67.207031 84.085938 68.902344 83.09375 C 73.128906 80.628906 74.097656 73.085938 71.496094 62.921875 C 71.429688 62.65625 71.585938 62.386719 71.847656 62.316406 C 81.960938 59.527344 88 54.921875 88 50 C 88 45.078125 81.960938 40.472656 71.847656 37.683594 C 71.585938 37.613281 71.429688 37.34375 71.496094 37.078125 C 74.097656 26.914062 73.125 19.371094 68.902344 16.90625 C 67.203125 15.910156 65.121094 15.734375 62.722656 16.378906 C 59.074219 17.355469 54.796875 20.214844 50.351562 24.648438 C 50.15625 24.839844 49.839844 24.839844 49.644531 24.648438 C 45.199219 20.214844 40.925781 17.355469 37.277344 16.378906 C 36.335938 16.125 35.445312 16 34.605469 16 Z M 65.386719 82 C 64.722656 82 64.007812 81.898438 63.238281 81.691406 C 59.910156 80.800781 55.929688 78.101562 51.726562 73.890625 C 51.539062 73.703125 51.53125 73.398438 51.710938 73.203125 C 53.976562 70.71875 56.203125 67.898438 58.335938 64.824219 C 58.421875 64.703125 58.554688 64.625 58.703125 64.609375 C 62.316406 64.285156 65.761719 63.757812 68.953125 63.039062 C 69.214844 62.980469 69.480469 63.140625 69.546875 63.402344 C 71.882812 72.523438 71.25 79.410156 67.894531 81.367188 C 67.175781 81.789062 66.335938 82 65.386719 82 Z M 52.769531 73.519531 C 56.722656 77.414062 60.425781 79.902344 63.496094 80.726562 C 65.097656 81.152344 66.40625 81.078125 67.390625 80.507812 C 70.246094 78.839844 70.746094 72.433594 68.695312 64.117188 C 65.667969 64.777344 62.417969 65.269531 59.027344 65.585938 C 57.011719 68.476562 54.90625 71.144531 52.769531 73.519531 Z M 34.613281 82 C 33.664062 82 32.824219 81.789062 32.105469 81.371094 C 28.75 79.410156 28.117188 72.523438 30.453125 63.402344 C 30.519531 63.140625 30.785156 62.984375 31.046875 63.039062 C 34.234375 63.757812 37.683594 64.285156 41.296875 64.609375 C 41.445312 64.625 41.578125 64.703125 41.664062 64.824219 C 43.796875 67.898438 46.023438 70.71875 48.289062 73.203125 C 48.46875 73.398438 48.464844 73.703125 48.273438 73.890625 C 44.070312 78.101562 40.089844 80.800781 36.761719 81.691406 C 35.992188 81.894531 35.277344 82 34.613281 82 Z M 31.304688 64.117188 C 29.253906 72.433594 29.753906 78.839844 32.609375 80.507812 C 33.59375 81.078125 34.902344 81.152344 36.503906 80.726562 C 39.574219 79.902344 43.277344 77.414062 47.230469 73.519531 C 45.09375 71.144531 42.992188 68.476562 40.976562 65.585938 C 37.582031 65.269531 34.332031 64.777344 31.304688 64.117188 Z M 50 71.855469 C 49.859375 71.855469 49.722656 71.796875 49.628906 71.691406 C 47.964844 69.851562 46.320312 67.828125 44.734375 65.671875 C 44.617188 65.519531 44.605469 65.308594 44.695312 65.140625 C 44.785156 64.96875 44.957031 64.867188 45.160156 64.878906 C 48.464844 65.039062 51.535156 65.039062 54.839844 64.878906 C 55.039062 64.863281 55.214844 64.96875 55.304688 65.140625 C 55.394531 65.308594 55.382812 65.515625 55.265625 65.671875 C 53.679688 67.824219 52.035156 69.851562 50.371094 71.691406 C 50.277344 71.796875 50.140625 71.855469 50 71.855469 Z M 46.167969 65.925781 C 47.417969 67.578125 48.703125 69.148438 50 70.609375 C 51.296875 69.148438 52.582031 67.578125 53.832031 65.925781 C 51.222656 66.023438 48.777344 66.023438 46.167969 65.925781 Z M 50 63 C 47.632812 63 45.242188 62.910156 42.902344 62.738281 C 42.746094 62.726562 42.609375 62.644531 42.523438 62.515625 C 41.1875 60.527344 39.9375 58.519531 38.8125 56.546875 C 37.632812 54.480469 36.515625 52.347656 35.5 50.214844 C 35.4375 50.078125 35.4375 49.921875 35.5 49.785156 C 36.515625 47.652344 37.632812 45.519531 38.8125 43.453125 C 39.9375 41.484375 41.183594 39.472656 42.523438 37.480469 C 42.609375 37.355469 42.75 37.273438 42.902344 37.261719 C 47.585938 36.910156 52.414062 36.910156 57.097656 37.261719 C 57.25 37.273438 57.390625 37.355469 57.476562 37.480469 C 58.816406 39.472656 60.0625 41.484375 61.1875 43.453125 C 62.367188 45.519531 63.484375 47.652344 64.5 49.785156 C 64.5625 49.921875 64.5625 50.078125 64.5 50.214844 C 63.484375 52.347656 62.367188 54.480469 61.1875 56.546875 C 60.0625 58.519531 58.8125 60.527344 57.476562 62.515625 C 57.390625 62.644531 57.253906 62.726562 57.097656 62.738281 C 54.757812 62.910156 52.367188 63 50 63 Z M 43.21875 61.757812 C 47.695312 62.078125 52.304688 62.078125 56.78125 61.757812 C 58.054688 59.855469 59.242188 57.933594 60.320312 56.050781 C 61.449219 54.074219 62.515625 52.039062 63.492188 50 C 62.515625 47.960938 61.449219 45.925781 60.320312 43.949219 C 59.246094 42.066406 58.054688 40.148438 56.78125 38.242188 C 52.300781 37.921875 47.695312 37.921875 43.21875 38.242188 C 41.941406 40.148438 40.753906 42.066406 39.675781 43.949219 C 38.550781 45.925781 37.480469 47.960938 36.503906 50 C 37.480469 52.039062 38.550781 54.074219 39.675781 56.050781 C 40.753906 57.9375 41.945312 59.855469 43.21875 61.757812 Z M 60.886719 62.371094 C 60.71875 62.371094 60.558594 62.285156 60.464844 62.136719 C 60.363281 61.972656 60.363281 61.765625 60.464844 61.601562 C 61.394531 60.140625 62.199219 58.8125 62.925781 57.539062 C 63.691406 56.199219 64.453125 54.78125 65.199219 53.320312 C 65.285156 53.144531 65.472656 53.042969 65.660156 53.046875 C 65.855469 53.054688 66.027344 53.171875 66.105469 53.351562 C 67.121094 55.75 68 58.148438 68.71875 60.480469 C 68.761719 60.613281 68.742188 60.757812 68.675781 60.878906 C 68.605469 61 68.484375 61.085938 68.351562 61.117188 C 66 61.640625 63.507812 62.0625 60.945312 62.367188 C 60.925781 62.371094 60.90625 62.371094 60.886719 62.371094 Z M 65.597656 54.730469 C 65.003906 55.867188 64.398438 56.976562 63.796875 58.03125 C 63.210938 59.054688 62.578125 60.113281 61.875 61.242188 C 63.84375 60.980469 65.765625 60.648438 67.601562 60.253906 C 67.023438 58.441406 66.351562 56.589844 65.597656 54.730469 Z M 39.113281 62.371094 C 39.09375 62.371094 39.070312 62.371094 39.050781 62.367188 C 36.492188 62.0625 34 61.640625 31.648438 61.113281 C 31.515625 61.085938 31.398438 61 31.324219 60.878906 C 31.257812 60.757812 31.238281 60.613281 31.28125 60.480469 C 32 58.148438 32.878906 55.75 33.894531 53.351562 C 33.972656 53.171875 34.144531 53.054688 34.339844 53.046875 C 34.519531 53.027344 34.714844 53.144531 34.800781 53.316406 C 35.546875 54.777344 36.308594 56.199219 37.074219 57.535156 C 37.800781 58.8125 38.605469 60.140625 39.535156 61.601562 C 39.636719 61.765625 39.636719 61.972656 39.535156 62.136719 C 39.441406 62.285156 39.28125 62.371094 39.113281 62.371094 Z M 32.398438 60.253906 C 34.234375 60.648438 36.15625 60.980469 38.125 61.242188 C 37.421875 60.113281 36.789062 59.054688 36.207031 58.03125 C 35.601562 56.976562 35 55.867188 34.40625 54.730469 C 33.648438 56.589844 32.976562 58.441406 32.398438 60.253906 Z M 71.164062 60.402344 C 70.949219 60.402344 70.753906 60.261719 70.6875 60.046875 C 69.710938 56.867188 68.4375 53.558594 66.90625 50.210938 C 66.84375 50.078125 66.84375 49.925781 66.90625 49.792969 C 68.4375 46.441406 69.710938 43.132812 70.6875 39.953125 C 70.769531 39.691406 71.042969 39.546875 71.300781 39.617188 C 80.367188 42.117188 86 46.09375 86 50 C 86 53.90625 80.367188 57.882812 71.296875 60.382812 C 71.253906 60.394531 71.207031 60.402344 71.164062 60.402344 Z M 67.910156 50 C 69.34375 53.15625 70.550781 56.277344 71.496094 59.289062 C 79.71875 56.945312 85 53.320312 85 50 C 85 46.679688 79.71875 43.054688 71.496094 40.710938 C 70.550781 43.722656 69.34375 46.847656 67.910156 50 Z M 28.835938 60.402344 C 28.789062 60.402344 28.746094 60.394531 28.703125 60.382812 C 19.632812 57.882812 14 53.90625 14 50 C 14 46.09375 19.632812 42.117188 28.703125 39.617188 C 28.960938 39.546875 29.234375 39.691406 29.3125 39.953125 C 30.289062 43.132812 31.5625 46.441406 33.097656 49.792969 C 33.15625 49.925781 33.15625 50.074219 33.097656 50.210938 C 31.5625 53.558594 30.289062 56.867188 29.3125 60.046875 C 29.246094 60.261719 29.050781 60.402344 28.835938 60.402344 Z M 28.503906 40.710938 C 20.28125 43.054688 15 46.679688 15 50 C 15 53.320312 20.28125 56.945312 28.503906 59.289062 C 29.449219 56.277344 30.65625 53.15625 32.089844 50 C 30.65625 46.847656 29.449219 43.722656 28.503906 40.710938 Z M 65.644531 46.957031 C 65.457031 46.957031 65.285156 46.851562 65.199219 46.683594 C 64.441406 45.195312 63.699219 43.816406 62.925781 42.464844 C 62.199219 41.191406 61.394531 39.863281 60.464844 38.398438 C 60.363281 38.234375 60.363281 38.027344 60.464844 37.863281 C 60.566406 37.699219 60.753906 37.609375 60.949219 37.632812 C 63.511719 37.941406 66.003906 38.359375 68.351562 38.886719 C 68.488281 38.914062 68.605469 39 68.675781 39.121094 C 68.746094 39.242188 68.761719 39.386719 68.722656 39.519531 C 68 41.855469 67.121094 44.253906 66.105469 46.652344 C 66.03125 46.828125 65.859375 46.949219 65.664062 46.957031 C 65.65625 46.957031 65.648438 46.957031 65.644531 46.957031 Z M 63.792969 41.96875 C 64.40625 43.039062 65 44.125 65.59375 45.269531 C 66.351562 43.414062 67.023438 41.5625 67.601562 39.746094 C 65.761719 39.351562 63.84375 39.019531 61.871094 38.757812 C 62.578125 39.890625 63.210938 40.945312 63.792969 41.96875 Z M 34.355469 46.957031 C 34.347656 46.957031 34.34375 46.957031 34.335938 46.957031 C 34.144531 46.949219 33.96875 46.832031 33.894531 46.652344 C 32.882812 44.257812 32 41.855469 31.28125 39.519531 C 31.238281 39.386719 31.253906 39.242188 31.324219 39.121094 C 31.394531 39.003906 31.511719 38.914062 31.648438 38.886719 C 34 38.359375 36.488281 37.941406 39.054688 37.632812 C 39.246094 37.613281 39.433594 37.699219 39.535156 37.863281 C 39.640625 38.027344 39.636719 38.234375 39.535156 38.398438 C 38.605469 39.863281 37.800781 41.191406 37.074219 42.464844 C 36.304688 43.816406 35.558594 45.195312 34.800781 46.683594 C 34.714844 46.851562 34.542969 46.957031 34.355469 46.957031 Z M 32.398438 39.746094 C 32.976562 41.5625 33.648438 43.414062 34.402344 45.269531 C 35 44.125 35.59375 43.039062 36.203125 41.96875 C 36.789062 40.945312 37.421875 39.890625 38.125 38.757812 C 36.15625 39.019531 34.234375 39.351562 32.398438 39.746094 Z M 69.0625 36.972656 C 69.027344 36.972656 68.988281 36.96875 68.953125 36.960938 C 65.765625 36.242188 62.316406 35.714844 58.703125 35.390625 C 58.554688 35.375 58.421875 35.296875 58.335938 35.175781 C 56.203125 32.101562 53.972656 29.28125 51.710938 26.800781 C 51.53125 26.601562 51.535156 26.296875 51.726562 26.109375 C 55.925781 21.898438 59.910156 19.199219 63.238281 18.308594 C 65.109375 17.808594 66.679688 17.921875 67.894531 18.632812 C 71.25 20.589844 71.882812 27.476562 69.546875 36.597656 C 69.488281 36.824219 69.285156 36.972656 69.0625 36.972656 Z M 59.023438 34.414062 C 62.417969 34.730469 65.667969 35.222656 68.695312 35.882812 C 70.746094 27.566406 70.246094 21.160156 67.390625 19.492188 C 66.410156 18.921875 65.097656 18.847656 63.496094 19.273438 C 60.425781 20.097656 56.722656 22.585938 52.769531 26.480469 C 54.90625 28.855469 57.007812 31.519531 59.023438 34.414062 Z M 30.9375 36.972656 C 30.714844 36.972656 30.511719 36.824219 30.453125 36.597656 C 28.117188 27.476562 28.75 20.589844 32.105469 18.632812 C 33.320312 17.921875 34.894531 17.808594 36.757812 18.308594 C 40.089844 19.203125 44.070312 21.898438 48.273438 26.109375 C 48.460938 26.296875 48.46875 26.601562 48.289062 26.800781 C 46.023438 29.28125 43.796875 32.101562 41.660156 35.175781 C 41.578125 35.296875 41.445312 35.375 41.296875 35.390625 C 37.683594 35.714844 34.234375 36.242188 31.046875 36.960938 C 31.011719 36.96875 30.972656 36.972656 30.9375 36.972656 Z M 32.609375 19.492188 C 29.753906 21.160156 29.253906 27.566406 31.304688 35.882812 C 34.332031 35.222656 37.582031 34.730469 40.972656 34.414062 C 42.992188 31.519531 45.09375 28.855469 47.226562 26.480469 C 43.277344 22.585938 39.574219 20.097656 36.5 19.273438 C 34.90625 18.847656 33.59375 18.921875 32.609375 19.492188 Z M 54.863281 35.121094 C 54.855469 35.121094 54.847656 35.121094 54.839844 35.121094 C 51.535156 34.960938 48.46875 34.960938 45.160156 35.121094 C 44.953125 35.128906 44.785156 35.027344 44.695312 34.859375 C 44.605469 34.6875 44.617188 34.480469 44.734375 34.324219 C 46.320312 32.171875 47.96875 30.144531 49.628906 28.308594 C 49.820312 28.097656 50.183594 28.097656 50.371094 28.308594 C 52.03125 30.144531 53.679688 32.171875 55.269531 34.324219 C 55.382812 34.480469 55.398438 34.6875 55.304688 34.859375 C 55.21875 35.019531 55.046875 35.121094 54.863281 35.121094 Z M 50 34 C 51.242188 34 52.527344 34.027344 53.832031 34.078125 C 52.582031 32.421875 51.296875 30.847656 50 29.394531 C 48.703125 30.851562 47.417969 32.421875 46.167969 34.078125 C 47.472656 34.027344 48.757812 34 50 34 Z M 50 34 "/>
</g>
</svg>
