<?xml version="1.0" encoding="UTF-8"?>
<svg xmlns="http://www.w3.org/2000/svg" xmlns:xlink="http://www.w3.org/1999/xlink" viewBox="0 0 64 64" width="64px" height="64px">
<defs>
<linearGradient id="linear0" gradientUnits="userSpaceOnUse" x1="85.704376" y1="97.564308" x2="85.704376" y2="134.375" gradientTransform="matrix(0.372093,0,0,0.372093,0,0)">
<stop offset="0" style="stop-color:rgb(85.09804%,96.862745%,93.333334%);stop-opacity:1;"/>
<stop offset="1" style="stop-color:rgb(17.647059%,94.509804%,60.784316%);stop-opacity:1;"/>
</linearGradient>
<linearGradient id="linear1" gradientUnits="userSpaceOnUse" x1="86" y1="18.50075" x2="86" y2="153.418625" gradientTransform="matrix(0.372093,0,0,0.372093,0,0)">
<stop offset="0" style="stop-color:rgb(49.019608%,89.019608%,76.47059%);stop-opacity:1;"/>
<stop offset="1" style="stop-color:rgb(4.313726%,63.921571%,37.64706%);stop-opacity:1;"/>
</linearGradient>
<linearGradient id="linear2" gradientUnits="userSpaceOnUse" x1="86" y1="18.50075" x2="86" y2="153.418625" gradientTransform="matrix(0.372093,0,0,0.372093,0,0)">
<stop offset="0" style="stop-color:rgb(49.019608%,89.019608%,76.47059%);stop-opacity:1;"/>
<stop offset="1" style="stop-color:rgb(4.313726%,63.921571%,37.64706%);stop-opacity:1;"/>
</linearGradient>
</defs>
<g id="surface11406068">
<path style=" stroke:none;fill-rule:nonzero;fill:url(#linear0);" d="M 18 40 L 18 50 L 45.300781 41.40625 C 45.496094 41.34375 45.660156 41.222656 45.78125 41.070312 L 29.742188 36.304688 Z M 18 40 "/>
<path style=" stroke:none;fill-rule:nonzero;fill:url(#linear1);" d="M 53 7 L 11 7 C 8.789062 7 7 8.789062 7 11 L 7 53 C 7 55.210938 8.789062 57 11 57 L 53 57 C 55.210938 57 57 55.210938 57 53 L 57 11 C 57 8.789062 55.210938 7 53 7 Z M 55 53 C 55 54.105469 54.105469 55 53 55 L 11 55 C 9.894531 55 9 54.105469 9 53 L 8.996094 11 C 8.996094 9.894531 9.894531 9 10.996094 9 L 53 9 C 54.105469 9 55 9.894531 55 11 Z M 55 53 "/>
<path style=" stroke:none;fill-rule:nonzero;fill:url(#linear2);" d="M 47 24 L 47 14 C 47 13.683594 46.847656 13.382812 46.59375 13.191406 C 46.335938 13.003906 46.003906 12.953125 45.699219 13.046875 L 18.398438 21.640625 C 17.5625 21.902344 17 22.671875 17 23.546875 L 17 32.070312 C 17 32.945312 17.585938 33.734375 18.429688 33.988281 L 26.324219 36.332031 L 17.699219 39.046875 C 17.28125 39.175781 17 39.5625 17 40 L 17 50 C 17 50.316406 17.152344 50.617188 17.40625 50.808594 C 17.582031 50.933594 17.789062 51 18 51 C 18.101562 51 18.203125 50.984375 18.300781 50.953125 L 45.601562 42.359375 C 46.4375 42.09375 47 41.328125 47 40.453125 L 47 31.949219 C 47 31.070312 46.410156 30.28125 45.566406 30.03125 L 37.628906 27.683594 L 46.300781 24.953125 C 46.71875 24.824219 47 24.4375 47 24 Z M 19 48.636719 L 19 40.734375 L 29.765625 37.34375 L 42.722656 41.167969 Z M 45 23.265625 L 33.902344 26.761719 C 33.480469 26.890625 33.199219 27.28125 33.203125 27.722656 C 33.207031 28.164062 33.496094 28.546875 33.917969 28.671875 L 45 31.949219 L 45 39.757812 L 19 32.066406 L 19 23.546875 L 45 15.363281 Z M 45 23.265625 "/>
</g>
</svg>
