<?xml version="1.0" encoding="UTF-8"?>
<svg xmlns="http://www.w3.org/2000/svg" xmlns:xlink="http://www.w3.org/1999/xlink" viewBox="0 0 48 48" width="48px" height="48px">
<g id="surface8970987">
<path style=" stroke:none;fill-rule:nonzero;fill:rgb(18.039216%,80.000001%,44.313726%);fill-opacity:1;" d="M 44 11.109375 L 44 36.890625 C 44 38.160156 43.210938 39.289062 42.019531 39.710938 L 33.199219 43.851562 L 34 33 L 34 15 L 33.199219 4.148438 L 42.019531 8.289062 C 43.210938 8.710938 44 9.839844 44 11.109375 Z M 44 11.109375 "/>
<path style=" stroke:none;fill-rule:nonzero;fill:rgb(10.196079%,73.725492%,61.176473%);fill-opacity:1;" d="M 9 33.894531 L 34 15 L 34 5.351562 C 34 4.15625 32.519531 3.59375 31.726562 4.492188 L 4.65625 29.238281 C 3.757812 30.070312 3.808594 31.507812 4.765625 32.269531 C 4.765625 32.269531 6.089844 33.503906 6.566406 33.84375 C 7.304688 34.371094 8.269531 34.429688 9 33.894531 Z M 9 33.894531 "/>
<path style=" stroke:none;fill-rule:nonzero;fill:rgb(10.196079%,73.725492%,61.176473%);fill-opacity:1;" d="M 9 14.105469 L 34 33 L 34 42.648438 C 34 43.84375 32.519531 44.40625 31.726562 43.507812 L 4.65625 18.761719 C 3.757812 17.929688 3.808594 16.492188 4.765625 15.730469 C 4.765625 15.730469 6.089844 14.496094 6.566406 14.15625 C 7.304688 13.628906 8.269531 13.570312 9 14.105469 Z M 9 14.105469 "/>
</g>
</svg>
