<?xml version="1.0" encoding="UTF-8"?>
<svg xmlns="http://www.w3.org/2000/svg" xmlns:xlink="http://www.w3.org/1999/xlink" viewBox="0 0 60 60" width="60px" height="60px">
<g id="surface8964980">
<path style=" stroke:none;fill-rule:nonzero;fill:rgb(10.196079%,73.725492%,61.176473%);fill-opacity:1;" d="M 30 6 C 16.746094 6 6 16.746094 6 30 C 6 43.253906 16.746094 54 30 54 C 43.253906 54 54 43.253906 54 30 C 54 16.746094 43.253906 6 30 6 Z M 48.167969 21.6875 C 48.175781 21.878906 48.203125 22.042969 48.203125 22.242188 C 48.203125 24.328125 47.8125 26.675781 46.636719 29.617188 L 40.664062 46.890625 C 39.394531 47.695312 38.035156 48.355469 36.597656 48.859375 L 30.363281 31.796875 L 24.382812 49.179688 C 23.101562 48.804688 21.875 48.304688 20.714844 47.695312 L 11.492188 22.441406 C 12.035156 21.121094 12.710938 19.871094 13.511719 18.707031 C 13.714844 18.710938 13.945312 18.714844 14.125 18.714844 C 16.277344 18.714844 19.609375 18.453125 19.609375 18.453125 C 20.722656 18.390625 20.851562 20.019531 19.742188 20.152344 C 19.742188 20.152344 18.625 20.28125 17.386719 20.347656 L 24.882812 42.648438 L 29.386719 29.136719 L 26.183594 20.34375 C 25.070312 20.28125 24.023438 20.152344 24.023438 20.152344 C 22.910156 20.085938 23.042969 18.386719 24.152344 18.453125 C 24.152344 18.453125 27.550781 18.714844 29.570312 18.714844 C 31.722656 18.714844 35.058594 18.453125 35.058594 18.453125 C 36.171875 18.390625 36.296875 20.019531 35.191406 20.152344 C 35.191406 20.152344 34.070312 20.28125 32.835938 20.347656 L 40.273438 42.480469 L 42.328125 35.613281 C 43.375 32.9375 43.894531 30.722656 43.894531 28.957031 C 43.894531 26.414062 42.984375 24.652344 42.199219 23.28125 C 41.15625 21.585938 40.175781 20.148438 40.175781 18.453125 C 40.175781 16.753906 41.335938 15.171875 43.035156 14.863281 C 45.203125 16.734375 46.960938 19.058594 48.167969 21.6875 Z M 48.167969 21.6875 "/>
</g>
</svg>
