<?xml version="1.0" standalone="no"?>
<!DOCTYPE svg PUBLIC "-//W3C//DTD SVG 20010904//EN"
 "http://www.w3.org/TR/2001/REC-SVG-20010904/DTD/svg10.dtd">
<svg version="1.0" xmlns="http://www.w3.org/2000/svg"
 width="128.000000pt" height="172.000000pt" viewBox="0 0 128.000000 172.000000"
 preserveAspectRatio="xMidYMid meet">
<metadata>
Created by potrace 1.16, written by Peter Selinger 2001-2019
</metadata>
<g transform="translate(0.000000,172.000000) scale(0.100000,-0.100000)"
fill="#000000" stroke="none">
<path d="M0 860 l0 -860 640 0 640 0 0 860 0 860 -640 0 -640 0 0 -860z m810
786 c0 -17 -21 -26 -59 -26 -35 0 -76 -40 -85 -81 -3 -18 -6 -193 -6 -390 l0
-359 -42 26 c-24 15 -76 51 -115 81 l-73 53 -1 263 c0 144 -4 283 -8 310 -11
64 -42 97 -93 97 -31 0 -38 3 -38 20 0 19 7 20 260 20 216 0 260 -2 260 -14z
m-607 -138 c-20 -86 -13 -234 16 -309 29 -76 107 -185 178 -248 32 -29 136
-104 231 -168 307 -207 382 -318 408 -605 4 -43 4 -78 2 -78 -3 0 -26 35 -51
79 -74 126 -132 162 -343 210 -215 49 -320 98 -414 193 -114 117 -160 313
-107 463 14 40 14 40 19 -65 5 -126 31 -194 100 -262 72 -73 153 -110 403
-187 149 -46 237 -96 285 -162 33 -46 41 -42 11 7 -48 79 -115 133 -306 247
-143 85 -194 122 -273 199 -154 149 -233 335 -219 516 6 71 30 161 56 211 19
34 19 25 4 -41z m983 -935 c-3 -32 -10 -139 -16 -238 -6 -99 -13 -199 -16
-223 l-5 -42 -44 0 -43 0 -4 98 c-3 86 -1 103 21 151 13 30 38 112 55 182 21
87 35 129 44 129 11 0 13 -13 8 -57z m-624 -186 l98 -22 0 -61 c0 -73 15 -121
42 -135 13 -7 68 -10 145 -8 l124 4 19 -44 c11 -24 20 -45 20 -47 0 -2 -162
-4 -360 -4 -353 0 -360 0 -360 20 0 15 7 20 25 20 39 0 85 28 97 58 5 15 13
78 16 140 4 99 7 112 21 107 9 -4 60 -17 113 -28z"/>
</g>
</svg>
